<svg width="187" height="61" viewBox="0 0 187 61" fill="none" xmlns="http://www.w3.org/2000/svg">
<path d="M29.3088 0C23.5115 0.000883649 17.8445 1.77591 13.0245 5.10064C8.20456 8.42535 4.44808 13.1505 2.23011 18.6784C0.0121222 24.2064 -0.567759 30.289 0.563786 36.1571C1.69532 42.0252 4.48748 47.4153 8.58717 51.6459C12.6869 55.8763 17.9099 58.7571 23.596 59.9241C29.2822 61.091 35.1758 60.4916 40.5319 58.2017C45.8879 55.9118 50.4657 52.0342 53.6866 47.0593C56.9073 42.0844 58.6263 36.2357 58.6263 30.2525C58.6173 22.2311 55.5253 14.5411 50.0291 8.86962C44.5328 3.1981 37.0811 0.00827725 29.3088 0ZM32.716 42.0613C29.7891 45.8909 25.5305 48.3913 20.8452 49.0313C20.8452 49.0313 24.2566 47.6908 27.4949 42.1819C30.5947 36.3513 30.8588 31.9459 33.7766 28.1614C38.7076 21.7634 45.063 23.278 45.063 23.278C44.3312 20.8833 42.1753 19.4088 39.1146 19.5473C38.1189 16.2187 33.8113 14.9855 30.7419 16.6342C28.4603 17.8539 26.01 19.6232 23.2739 19.5651C22.9689 19.5718 22.6638 19.5584 22.3605 19.525C20.6541 19.2535 19.0796 18.4159 17.8754 17.139C17.6848 19.8869 19.3993 22.4604 21.4253 23.3182C24.8887 24.7792 27.3347 23.0054 27.3347 23.0054C25.1472 28.9585 21.2119 34.0573 16.0788 37.5889C10.2992 34.6356 6.48952 29.2561 5.68862 21.8438C7.61355 16.09 11.4549 11.2282 16.5285 8.12414C21.6021 5.02012 27.5786 3.87543 33.3936 4.89397C39.2085 5.91252 44.4843 9.02812 48.2815 13.686C52.0787 18.3438 54.1506 24.2413 54.1283 30.3284C54.1283 30.6144 54.1283 30.8959 54.1283 31.1817C51.7421 34.7163 48.5262 37.5682 44.7813 39.4709C41.0365 41.3735 36.8853 42.2649 32.716 42.0613Z" fill="#F76835"/>
<path d="M116.432 32.78C116.432 35.1122 115.855 36.8995 114.7 38.1416C113.546 39.3837 112.003 39.9958 110.072 39.978C108.341 39.978 107.001 39.4477 106.055 38.3873C105.108 37.3269 104.636 35.7348 104.639 33.611V22.0168H99.2321V34.3036C99.2321 37.8363 100.124 40.4843 101.907 42.2477C103.691 44.0109 106.131 44.8927 109.228 44.8927C110.612 44.9039 111.985 44.6384 113.272 44.1108C114.477 43.6086 115.557 42.8329 116.432 41.8411V43.5031C116.432 45.9546 115.874 47.7715 114.757 48.954C113.64 50.1365 111.895 50.7323 109.523 50.7412C108.239 50.7487 106.966 50.4888 105.782 49.9772C104.464 49.5315 103.24 48.831 102.176 47.913L99.7385 52.1306C101.132 53.3173 102.756 54.1825 104.501 54.6685C106.217 55.2631 108.015 55.565 109.826 55.5621C117.852 55.5621 121.865 51.3458 121.865 42.9133V22.0168H116.432V32.78Z" fill="#F76835"/>
<path d="M151.767 22.0168L143.121 36.9977L134.861 22.0168H129.164V45.9695H134.121V30.0457L141.814 43.4584H144.161L151.988 30.0904V45.9695H156.897L156.854 22.0168H151.767Z" fill="#F76835"/>
<path d="M185.554 27.666C184.503 25.8203 182.976 24.3133 181.142 23.3142C179.167 22.2833 176.987 21.746 174.774 21.746C172.562 21.746 170.38 22.2833 168.405 23.3142C166.571 24.312 165.042 25.8193 163.994 27.666C162.921 29.5864 162.373 31.7716 162.41 33.9882C162.374 36.213 162.922 38.4065 163.994 40.3371C165.037 42.1933 166.567 43.709 168.405 44.7112C170.38 45.7422 172.562 46.2794 174.774 46.2794C176.987 46.2794 179.167 45.7422 181.142 44.7112C182.981 43.7076 184.508 42.1921 185.554 40.3371C186.626 38.4065 187.174 36.213 187.138 33.9882C187.174 31.7716 186.626 29.5864 185.554 27.666ZM179.705 39.4166C178.38 40.7412 176.605 41.4817 174.76 41.4817C172.915 41.4817 171.143 40.7412 169.817 39.4166C168.527 38.0406 167.884 36.2311 167.885 33.9882C167.889 31.7453 168.533 29.9357 169.817 28.5596C171.144 27.2383 172.917 26.4999 174.76 26.4999C176.605 26.4999 178.378 27.2383 179.705 28.5596C181.009 29.9357 181.662 31.7453 181.662 33.9882C181.662 36.2311 181.009 38.0406 179.705 39.4166Z" fill="#F76835"/>
<path d="M84.016 29.6362L93.4235 15.7587H86.8083L80.4531 25.0611L74.0935 15.7587H67.565L77.059 29.8641L66.7512 44.9658H73.2752L80.4531 34.5286L87.67 44.9658H91.0943V45.9665H91.0987V52.1502H95.9301V41.0339H91.7221L84.016 29.6362Z" fill="#F76835"/>
</svg>
